<svg viewBox="0 0 417.27 72" xmlns="http://www.w3.org/2000/svg" xmlns:xlink="http://www.w3.org/1999/xlink" id="Layer_1" xml:space="preserve" overflow="hidden"><g><g><g><g><rect x="2.71" y="1.28" width="10.73" height="10.73" fill="#00C7FD"/><g><path d="M13.16 57.12 13.16 18.52 2.99 18.52 2.99 57.12 13.16 57.12ZM80.57 57.51 80.57 48.05C79.07 48.04 77.84 47.96 76.89 47.81 75.84 47.64 75.04 47.29 74.5 46.75 73.96 46.21 73.61 45.44 73.44 44.44 73.28 43.49 73.2 42.23 73.2 40.71L73.2 27.21 80.56 27.21 80.56 18.51 73.2 18.51 73.2 3.48 63.04 3.48 63.04 40.8C63.04 43.95 63.31 46.63 63.85 48.76 64.38 50.87 65.29 52.59 66.56 53.88 67.82 55.17 69.49 56.11 71.53 56.66 73.58 57.23 76.19 57.51 79.29 57.51L80.57 57.51ZM138.86 57.12 138.86 0.5 128.69 0.5 128.69 57.12 138.86 57.12ZM53.23 22.32C50.41 19.28 46.43 17.74 41.4 17.74 38.97 17.74 36.73 18.24 34.73 19.23 32.73 20.22 31.03 21.6 29.68 23.35L29.13 24.06 29.13 23.42 29.13 18.53 19.09 18.53 19.09 57.13 29.2 57.13 29.21 37.99C29.21 37.75 29.21 37.52 29.22 37.3 29.32 33.69 30.22 31 31.9 29.29 33.69 27.47 35.86 26.55 38.35 26.55 41.28 26.55 43.52 27.45 45.01 29.22 46.46 30.96 47.21 33.45 47.22 36.62L47.22 36.62 47.22 36.7C47.22 36.71 47.22 36.71 47.22 36.72L47.22 36.72 47.22 57.14 57.48 57.14 57.48 35.2C57.49 29.7 56.06 25.37 53.23 22.32ZM123.39 37.74C123.39 34.97 122.9 32.35 121.92 29.93 120.95 27.52 119.57 25.38 117.83 23.56 116.09 21.74 113.97 20.3 111.54 19.28 109.11 18.26 106.39 17.74 103.46 17.74 100.69 17.74 98.06 18.27 95.62 19.32 93.18 20.37 91.04 21.81 89.24 23.61 87.45 25.4 86 27.55 84.95 29.98 83.9 32.41 83.37 35.05 83.37 37.82 83.37 40.59 83.88 43.23 84.88 45.66 85.88 48.1 87.28 50.24 89.05 52.03 90.82 53.82 92.99 55.27 95.5 56.32 98.01 57.37 100.8 57.9 103.77 57.9 112.37 57.9 117.74 53.99 120.94 50.32L113.62 44.75C112.08 46.58 108.42 49.06 103.84 49.06 100.97 49.06 98.61 48.4 96.82 47.09 95.03 45.78 93.79 43.98 93.15 41.73L93.05 41.37 123.38 41.37 123.38 37.74ZM93.14 34.2C93.14 31.37 96.38 26.44 103.38 26.43 110.37 26.43 113.63 31.36 113.63 34.19L93.14 34.2Z" fill="#0054AE"/></g></g></g></g><g><path d="M166.02 1.33 171.28 1.33 171.28 6.75 166.97 6.75C164.18 6.75 162.5 8.19 162.5 11.53L162.5 18.63 171.27 18.63 171.27 24.37 162.5 24.37 162.5 57.14 156.04 57.14 156.04 11.38C156.05 4.84 159.56 1.33 166.02 1.33ZM172.62 38.01C172.62 26.53 181.31 17.6 192.79 17.6 204.19 17.6 212.72 26.45 212.72 37.93 212.72 49.41 204.03 58.34 192.55 58.34 181.15 58.34 172.62 49.49 172.62 38.01ZM206.11 37.93C206.11 29.8 200.29 23.26 192.63 23.26 185.06 23.26 179.23 29.64 179.23 38.01 179.23 46.22 185.05 52.68 192.71 52.68 200.29 52.68 206.11 46.3 206.11 37.93ZM248.25 51.25C245.38 55.4 240.75 58.03 234.46 58.03 223.93 58.03 218.19 50.45 218.19 39.61L218.19 18.63 224.73 18.63 224.73 39.2C224.73 46.85 228.56 52.28 236.05 52.28 243.62 52.28 248.17 46.38 248.17 38.8L248.17 18.63 254.71 18.63 254.71 57.14 248.25 57.14 248.25 51.25ZM268.52 24.61C271.39 20.38 276.09 17.67 282.31 17.67 292.92 17.67 298.58 25.25 298.58 36.17L298.58 57.14 292.12 57.14 292.12 36.58C292.12 28.85 288.21 23.5 280.8 23.5 273.15 23.5 268.6 29.32 268.6 36.98L268.6 57.15 262.14 57.15 262.14 18.63 268.52 18.63 268.52 24.61ZM343.91 57.15 337.45 57.15 337.45 50.93C334.1 55.24 329 57.95 323.18 57.95 313.05 57.95 304.2 50.3 304.2 38.02 304.2 25.5 313.53 17.69 323.66 17.69 329 17.69 333.95 20 337.38 23.99L337.38 1.33 343.92 1.33 343.92 57.15ZM324.22 23.42C316.64 23.42 310.82 28.92 310.82 37.85 310.82 46.78 316.48 52.28 323.9 52.28 331.47 52.28 337.61 46.14 337.61 37.77 337.61 29.32 331.71 23.42 324.22 23.42ZM358.31 23.5C360.62 20.07 364.37 18.4 369.47 18.4L372.98 18.4 372.98 24.54 369.39 24.54C361.97 24.54 358.39 28.45 358.39 36.1L358.39 57.15 351.93 57.15 351.93 18.63 358.31 18.63 358.31 23.5ZM382.9 18.63 395.34 49.25 407.78 18.63 414.56 18.63 392.15 71.5 385.45 71.5 392.07 56.83 375.8 18.63 382.9 18.63Z" fill="#00C7FD"/></g></g></svg>